<?xml version="1.0" encoding="UTF-8"?>
<svg version="1.1" xmlns="http://www.w3.org/2000/svg" width="96" height="96">
<path d="M0 0 C1.31157326 -0.00956978 1.31157326 -0.00956978 2.64964294 -0.01933289 C4.07615929 -0.02100212 4.07615929 -0.02100212 5.53149414 -0.02270508 C6.98719566 -0.02769768 6.98719566 -0.02769768 8.4723053 -0.03279114 C10.52938359 -0.03786463 12.58647015 -0.04019933 14.64355469 -0.04003906 C17.79969783 -0.04222459 20.9554911 -0.06037324 24.11157227 -0.0793457 C26.10571169 -0.08227966 28.09985278 -0.08426444 30.09399414 -0.08520508 C31.0429808 -0.09239059 31.99196747 -0.09957611 32.9697113 -0.10697937 C33.84724564 -0.10390274 34.72477997 -0.10082611 35.62890625 -0.09765625 C36.4031041 -0.09908127 37.17730194 -0.10050629 37.97496033 -0.10197449 C39.87915039 0.14526367 39.87915039 0.14526367 41.87915039 2.14526367 C41.3434361 5.68097796 41.3434361 5.68097796 39.87915039 7.14526367 C38.50305157 7.24321679 37.12201157 7.27324455 35.74243164 7.2746582 C34.42601685 7.27938644 34.42601685 7.27938644 33.08300781 7.28421021 C32.12885986 7.28218597 31.17471191 7.28016174 30.19165039 7.27807617 C28.73239136 7.27951126 28.73239136 7.27951126 27.24365234 7.28097534 C25.18237239 7.28165726 23.12109031 7.2798022 21.05981445 7.27563477 C17.89277351 7.27028668 14.72587439 7.27557939 11.55883789 7.28198242 C9.56144174 7.28132164 7.56404568 7.28004048 5.56665039 7.27807617 C4.61250244 7.2801004 3.65835449 7.28212463 2.67529297 7.28421021 C1.79768311 7.28105804 0.92007324 7.27790588 0.01586914 7.2746582 C-0.76054932 7.27386261 -1.53696777 7.27306702 -2.33691406 7.27224731 C-4.12084961 7.14526367 -4.12084961 7.14526367 -5.12084961 6.14526367 C-5.24584961 3.64526367 -5.24584961 3.64526367 -5.12084961 1.14526367 C-3.57928406 -0.39630188 -2.14639197 0.01057873 0 0 Z " fill="#000000" transform="translate(38.120849609375,63.854736328125)"/>
<path d="M0 0 C1.31157326 -0.00956978 1.31157326 -0.00956978 2.64964294 -0.01933289 C4.07615929 -0.02100212 4.07615929 -0.02100212 5.53149414 -0.02270508 C6.98719566 -0.02769768 6.98719566 -0.02769768 8.4723053 -0.03279114 C10.52938359 -0.03786463 12.58647015 -0.04019933 14.64355469 -0.04003906 C17.79969783 -0.04222459 20.9554911 -0.06037324 24.11157227 -0.0793457 C26.10571169 -0.08227966 28.09985278 -0.08426444 30.09399414 -0.08520508 C31.0429808 -0.09239059 31.99196747 -0.09957611 32.9697113 -0.10697937 C33.84724564 -0.10390274 34.72477997 -0.10082611 35.62890625 -0.09765625 C36.4031041 -0.09908127 37.17730194 -0.10050629 37.97496033 -0.10197449 C39.87915039 0.14526367 39.87915039 0.14526367 41.87915039 2.14526367 C41.3434361 5.68097796 41.3434361 5.68097796 39.87915039 7.14526367 C38.50305157 7.24321679 37.12201157 7.27324455 35.74243164 7.2746582 C34.42601685 7.27938644 34.42601685 7.27938644 33.08300781 7.28421021 C32.12885986 7.28218597 31.17471191 7.28016174 30.19165039 7.27807617 C28.73239136 7.27951126 28.73239136 7.27951126 27.24365234 7.28097534 C25.18237239 7.28165726 23.12109031 7.2798022 21.05981445 7.27563477 C17.89277351 7.27028668 14.72587439 7.27557939 11.55883789 7.28198242 C9.56144174 7.28132164 7.56404568 7.28004048 5.56665039 7.27807617 C4.61250244 7.2801004 3.65835449 7.28212463 2.67529297 7.28421021 C1.79768311 7.28105804 0.92007324 7.27790588 0.01586914 7.2746582 C-0.76054932 7.27386261 -1.53696777 7.27306702 -2.33691406 7.27224731 C-4.12084961 7.14526367 -4.12084961 7.14526367 -5.12084961 6.14526367 C-5.24584961 3.64526367 -5.24584961 3.64526367 -5.12084961 1.14526367 C-3.57928406 -0.39630188 -2.14639197 0.01057873 0 0 Z " fill="#000000" transform="translate(38.120849609375,24.854736328125)"/>
<path d="M0 0 C15.18 0 30.36 0 46 0 C46.495 2.475 46.495 2.475 47 5 C46 6 46 6 44.13340759 6.12025452 C43.31844315 6.11803391 42.5034787 6.11581329 41.66381836 6.11352539 C40.28249977 6.11341209 40.28249977 6.11341209 38.87327576 6.11329651 C37.87224319 6.10813522 36.87121063 6.10297394 35.83984375 6.09765625 C34.82024063 6.0962413 33.80063751 6.09482635 32.75013733 6.09336853 C29.47922893 6.08775097 26.20838787 6.0751955 22.9375 6.0625 C20.72591244 6.05748726 18.51432382 6.05292396 16.30273438 6.04882812 C10.86846643 6.03777584 5.43423803 6.02102063 0 6 C0 4.02 0 2.04 0 0 Z " fill="#000000" transform="translate(33,45)"/>
<path d="M0 0 C2.625 0.375 2.625 0.375 5 1 C4.73392436 7.25277751 2.5481431 12.5625418 -2 17 C-4.49609375 17.47265625 -4.49609375 17.47265625 -7 17 C-8.80078125 15.46875 -8.80078125 15.46875 -10.3125 13.5 C-10.82425781 12.8503125 -11.33601562 12.200625 -11.86328125 11.53125 C-12.23839844 11.0259375 -12.61351562 10.520625 -13 10 C-12.34 8.35 -11.68 6.7 -11 5 C-6.25 5.875 -6.25 5.875 -4 7 C-3.71125 6.21625 -3.4225 5.4325 -3.125 4.625 C-2 2 -2 2 0 0 Z " fill="#000000" transform="translate(25,16)"/>
<path d="M0 0 C2.625 -0.375 2.625 -0.375 5 0 C6 1 6 1 6.3125 3.19921875 C5.8917619 6.97008401 4.30104026 8.82833842 2 11.8125 C1.2575 12.78832031 0.515 13.76414062 -0.25 14.76953125 C-0.8275 15.50558594 -1.405 16.24164063 -2 17 C-5.8960467 16.4490439 -6.88954057 16.10565685 -9.875 13.25 C-12 10 -12 10 -11.8125 7.125 C-11.544375 6.42375 -11.27625 5.7225 -11 5 C-8.33333333 5 -5.66666667 5 -3 5 C-2.54625 4.175 -2.0925 3.35 -1.625 2.5 C-1.08875 1.675 -0.5525 0.85 0 0 Z " fill="#000000" transform="translate(24,36)"/>
<path d="M0 0 C0.721875 0.00257812 1.44375 0.00515625 2.1875 0.0078125 C2.909375 0.00523438 3.63125 0.00265625 4.375 0 C6.1875 0.1328125 6.1875 0.1328125 7.1875 1.1328125 C7.3125 4.6328125 7.3125 4.6328125 7.1875 8.1328125 C6.1875 9.1328125 6.1875 9.1328125 4.375 9.265625 C3.653125 9.26304688 2.93125 9.26046875 2.1875 9.2578125 C1.465625 9.26039062 0.74375 9.26296875 0 9.265625 C-1.8125 9.1328125 -1.8125 9.1328125 -2.8125 8.1328125 C-2.9375 4.6328125 -2.9375 4.6328125 -2.8125 1.1328125 C-1.8125 0.1328125 -1.8125 0.1328125 0 0 Z " fill="#000000" transform="translate(18.8125,62.8671875)"/>
</svg>
